# xmcd
#
# Track frame offsets:
#	150
#	17585
#	29511
#	43962
#	58762
#	83467
#
# Disc length: 1317 seconds
#
# Revision: 1
# Processed by: cddbd v1.5.2PL0 Copyright (c) Steve Scherf et al.
# Submitted via: audiograbber 1.83.01
#
DISCID=44052306
DTITLE=Skeletones - Los Skeletone Blues
DYEAR=1900
DGENRE=
TTITLE0=Monkey On My Back
TTITLE1=Baby Knocks Me Off My Feet
TTITLE2=Better Girlfriend
TTITLE3=Lost In You
TTITLE4=Whiskey For Water
TTITLE5=Data
EXTD=
EXTT0=
EXTT1=
EXTT2=
EXTT3=
EXTT4=
EXTT5=
PLAYORDER=
